<?xml version="1.0" standalone="no"?>
<!DOCTYPE svg PUBLIC "-//W3C//DTD SVG 20010904//EN"
 "http://www.w3.org/TR/2001/REC-SVG-20010904/DTD/svg10.dtd">
<svg version="1.0" xmlns="http://www.w3.org/2000/svg"
 width="1080.000000pt" height="1080.000000pt" viewBox="0 0 1080.000000 1080.000000"
 preserveAspectRatio="xMidYMid meet">
<metadata>
Created by potrace 1.16, written by Peter Selinger 2001-2019
</metadata>
<g transform="translate(0.000000,1080.000000) scale(0.100000,-0.100000)"
fill="#000000" stroke="none">
<path d="M5030 10320 c-85 -5 -189 -14 -230 -20 -164 -25 -197 -29 -254 -35
-32 -3 -66 -9 -75 -14 -9 -5 -38 -12 -66 -15 -27 -4 -54 -11 -60 -15 -5 -5
-38 -11 -73 -15 -35 -3 -73 -11 -85 -18 -21 -11 -39 -16 -149 -39 -26 -5 -60
-16 -75 -24 -15 -8 -38 -15 -51 -15 -13 0 -20 -4 -17 -10 3 -6 -4 -10 -18 -10
-13 0 -52 -11 -88 -25 -35 -14 -82 -28 -104 -32 -22 -3 -44 -9 -50 -13 -5 -4
-46 -23 -90 -41 -44 -18 -89 -38 -100 -45 -11 -6 -32 -14 -47 -18 -15 -3 -33
-12 -40 -19 -7 -8 -27 -18 -43 -24 -17 -6 -29 -16 -27 -22 1 -7 -2 -10 -7 -6
-6 3 -25 -1 -42 -10 -18 -10 -43 -14 -58 -11 -14 3 -20 3 -13 0 26 -12 -112
-91 -148 -86 -12 2 -12 1 -2 -6 11 -7 7 -11 -13 -16 -14 -4 -31 -3 -38 1 -7 4
-7 0 2 -10 12 -15 11 -17 -3 -17 -9 0 -16 -5 -16 -11 0 -5 -4 -8 -9 -5 -10 6
-101 -41 -101 -53 0 -3 -12 -12 -27 -18 -52 -22 -112 -60 -106 -67 3 -3 0 -6
-8 -6 -8 0 -27 -11 -43 -25 -16 -14 -32 -25 -36 -25 -6 0 -20 -11 -66 -49 -7
-5 -15 -7 -18 -4 -3 3 -18 -8 -33 -25 -16 -16 -41 -37 -58 -45 -16 -9 -43 -28
-58 -42 -16 -15 -34 -24 -43 -21 -8 3 -12 1 -9 -4 6 -9 -29 -50 -43 -50 -4 0
-22 -16 -40 -36 -33 -36 -33 -36 -55 -17 -21 18 -21 18 -7 -1 13 -16 12 -20
-5 -32 -10 -8 -16 -14 -12 -14 12 0 -56 -56 -76 -63 -10 -4 -15 -11 -12 -17 3
-5 1 -10 -4 -10 -6 0 -11 -5 -11 -12 0 -6 10 -2 23 10 13 12 26 19 30 16 4 -4
9 1 13 10 3 9 10 13 15 10 8 -5 13 10 10 29 -1 5 3 5 9 2 6 -4 19 0 28 9 9 8
31 26 47 40 68 56 84 73 77 81 -4 5 1 5 11 2 9 -4 17 -3 17 2 0 5 22 24 50 42
27 19 52 42 56 52 3 9 10 15 15 12 5 -4 9 -1 9 5 0 6 4 9 9 5 5 -3 21 6 34 19
14 14 28 22 31 19 3 -4 6 -1 6 5 0 7 6 12 14 12 8 0 16 4 18 8 2 4 27 23 56
42 28 18 52 37 52 42 0 4 3 7 8 6 9 -2 61 28 116 67 22 16 47 30 55 31 8 2 17
6 20 11 3 5 18 14 34 20 15 7 27 17 27 23 0 5 9 10 20 10 12 0 32 11 45 24 13
13 26 21 29 18 3 -3 6 0 6 6 0 7 3 11 8 11 21 -4 42 3 56 17 9 8 16 13 16 10
0 -6 242 111 280 135 8 5 22 12 30 15 8 3 33 13 55 21 22 8 47 18 55 22 8 4
41 15 72 26 31 10 54 23 51 28 -4 6 -1 7 6 2 7 -4 23 -3 34 3 12 6 81 30 152
52 72 23 144 47 160 52 26 9 91 25 265 67 129 32 484 89 650 106 40 3 260 15
365 19 134 5 494 -14 646 -34 278 -36 273 -36 309 -45 14 -3 59 -12 100 -20
88 -16 342 -79 383 -94 16 -6 33 -9 38 -5 5 3 9 0 9 -5 0 -6 9 -11 20 -11 10
0 42 -9 70 -20 28 -11 54 -19 58 -18 4 1 17 -3 30 -10 12 -7 22 -10 22 -6 0 3
7 1 15 -6 8 -7 15 -10 15 -6 0 4 10 0 23 -8 12 -8 33 -17 47 -20 29 -6 191
-72 288 -117 71 -33 114 -52 122 -53 15 -3 167 -83 178 -93 7 -7 17 -13 22
-13 5 0 66 -34 137 -76 70 -41 132 -76 138 -77 5 -1 15 -7 23 -14 7 -7 68 -49
135 -94 67 -45 131 -90 143 -100 11 -11 24 -16 27 -12 4 3 7 1 7 -5 0 -7 19
-26 43 -42 48 -35 84 -63 130 -103 17 -16 49 -40 69 -53 20 -14 39 -32 42 -40
3 -8 10 -14 15 -14 5 0 24 -14 43 -31 67 -63 363 -359 359 -359 -3 0 11 -17
30 -37 20 -21 71 -81 114 -133 43 -52 85 -102 92 -110 36 -42 97 -126 177
-246 29 -44 61 -88 70 -96 9 -9 16 -19 16 -22 0 -4 35 -64 77 -134 74 -122
227 -408 239 -445 3 -9 24 -56 46 -104 34 -72 42 -83 50 -68 7 12 7 19 0 24
-6 3 -19 27 -30 51 -46 106 -63 140 -73 140 -6 0 -9 6 -6 14 6 15 -36 110 -45
101 -3 -3 -9 10 -12 29 -4 20 -22 59 -41 88 -20 29 -38 61 -41 70 -3 10 -10
18 -15 18 -5 0 -9 6 -9 13 -1 19 -32 79 -64 120 -16 21 -26 43 -22 52 3 9 2
14 -3 10 -9 -5 -61 49 -61 64 0 5 -14 22 -30 39 -30 32 -39 49 -20 37 6 -3 10
-2 10 4 0 6 -9 15 -20 21 -11 6 -20 17 -20 25 0 8 -5 15 -11 15 -6 0 -9 9 -6
19 3 14 1 18 -9 14 -8 -3 -27 17 -51 56 -21 33 -43 60 -50 61 -6 0 -15 10 -19
23 -4 12 -15 31 -25 42 -56 61 -69 77 -69 86 0 6 5 7 12 3 7 -4 8 -3 4 4 -4 6
-13 9 -21 6 -8 -3 -19 4 -26 18 -7 13 -30 41 -51 62 -21 22 -36 46 -34 52 3 8
0 11 -8 8 -7 -3 -16 2 -19 10 -4 9 -14 16 -23 16 -10 0 -14 3 -11 7 4 3 -18
31 -48 60 -30 30 -55 58 -55 63 0 5 -8 14 -17 19 -38 20 -144 132 -136 144 5
9 3 9 -8 1 -10 -8 -19 -5 -35 12 -12 13 -19 25 -16 28 3 3 1 6 -5 6 -15 0 -63
51 -57 61 3 5 -1 6 -9 3 -8 -3 -17 2 -20 10 -4 9 -11 16 -18 16 -6 0 -20 11
-31 25 -11 14 -25 25 -32 25 -6 0 -18 9 -26 19 -7 11 -17 18 -22 15 -4 -3 -8
-1 -8 5 0 5 -9 13 -20 16 -11 4 -18 11 -15 16 3 5 0 6 -8 3 -8 -3 -18 -1 -22
5 -3 6 -1 11 6 11 7 0 9 3 5 8 -4 4 -11 7 -14 7 -14 0 -78 45 -100 69 -12 14
-29 26 -38 26 -8 0 -13 4 -10 8 3 5 -11 14 -30 21 -19 7 -32 17 -29 22 4 5 0
9 -7 9 -7 0 -25 11 -40 25 -15 14 -33 25 -41 25 -8 0 -27 11 -43 25 -16 14
-34 25 -41 25 -7 0 -16 6 -20 14 -4 8 -24 19 -43 24 -19 6 -27 11 -17 11 24 1
12 21 -13 21 -10 0 -26 7 -34 16 -9 8 -20 13 -25 10 -5 -4 -11 -2 -13 2 -5 13
-140 90 -171 97 -15 4 -27 10 -27 14 0 6 -92 51 -105 51 -3 0 -24 12 -48 27
-23 14 -44 26 -47 26 -3 0 -29 11 -58 24 -29 12 -57 23 -62 23 -5 0 -19 8 -30
18 -11 9 -24 17 -28 18 -20 1 -78 17 -82 23 -8 10 -73 39 -102 45 -20 5 -26
11 -21 22 5 14 3 14 -14 4 -16 -11 -30 -9 -77 9 -31 11 -66 21 -77 21 -11 0
-18 4 -15 8 3 5 -18 14 -47 21 -29 7 -101 27 -162 43 -60 16 -130 33 -155 38
-25 5 -63 14 -85 20 -22 6 -85 18 -140 26 -55 8 -107 16 -115 20 -8 3 -33 8
-55 10 -22 3 -47 7 -57 10 -100 30 -742 51 -1048 34z"/>
<path d="M4876 10133 c-3 -3 -6 -283 -6 -620 l0 -614 -52 -24 c-38 -18 -54
-21 -57 -12 -3 11 -93 225 -141 337 -11 25 -63 151 -116 280 -54 129 -116 280
-139 334 -22 55 -48 104 -56 109 -11 7 -41 -1 -107 -29 -79 -33 -92 -42 -92
-62 0 -22 14 -58 85 -222 23 -55 101 -245 135 -330 10 -25 33 -79 50 -120 77
-179 153 -368 163 -403 11 -38 11 -40 -23 -68 -19 -15 -40 -29 -45 -29 -6 0
-199 189 -430 420 -230 231 -421 420 -424 420 -14 0 -151 -147 -151 -162 0
-10 185 -202 415 -430 228 -227 415 -418 415 -424 0 -7 -8 -22 -18 -35 -18
-22 -20 -22 -58 -6 -21 8 -95 39 -164 68 -69 28 -151 62 -182 75 -32 13 -84
35 -115 48 -32 13 -119 49 -193 79 -74 30 -168 69 -207 86 -167 71 -217 90
-224 85 -13 -8 -81 -193 -76 -207 2 -6 58 -34 123 -61 66 -27 175 -73 244
-102 69 -28 242 -100 385 -159 143 -59 274 -115 291 -124 l31 -16 -18 -42 -18
-43 -616 0 -615 0 2 -527 3 -528 610 -3 c559 -2 611 -3 623 -19 28 -38 42 -30
-278 -163 -107 -45 -224 -95 -260 -110 -186 -81 -470 -190 -625 -240 -136 -45
-148 -52 -177 -107 -58 -112 -124 -234 -172 -318 -37 -67 -50 -100 -50 -130 0
-28 27 -102 86 -240 47 -110 139 -328 204 -485 65 -157 131 -316 147 -355 16
-38 40 -95 52 -125 13 -30 46 -111 75 -180 29 -69 90 -215 135 -325 186 -450
239 -579 302 -727 20 -46 29 -47 161 -14 324 81 674 126 983 126 l179 0 0
-1490 0 -1490 518 0 c284 0 522 4 527 8 12 9 11 -154 13 1383 l2 1321 33 -21
c17 -12 56 -33 85 -47 l53 -26 187 27 187 26 140 69 c271 133 430 196 654 260
483 138 1047 138 1469 0 68 -22 154 -43 192 -46 66 -7 70 -6 78 17 9 23 53
288 72 434 5 39 14 100 20 138 11 62 10 73 -13 140 -14 39 -40 106 -57 147
-18 41 -56 134 -85 205 -29 72 -79 193 -110 270 -32 77 -70 172 -85 210 -48
120 -479 1188 -539 1334 -17 41 -41 85 -53 96 -36 35 -287 99 -528 135 -74 11
-148 23 -165 25 -16 3 -95 10 -175 15 -132 9 -153 13 -235 46 -49 20 -112 45
-140 56 -52 20 -140 57 -213 89 l-42 19 15 30 16 30 603 0 c333 0 611 3 620 6
14 5 16 60 16 518 0 385 -3 515 -12 524 -9 9 -161 12 -624 12 l-612 0 -11 31
c-10 29 -9 31 27 46 20 8 66 27 102 43 102 43 272 114 430 179 80 33 195 80
255 106 61 25 145 60 188 77 42 17 77 36 77 42 0 16 -56 160 -72 185 -17 27
-26 27 -111 -9 -40 -17 -97 -41 -127 -54 -30 -13 -89 -37 -130 -54 -80 -33
-197 -81 -270 -112 -133 -56 -458 -189 -478 -195 -17 -5 -30 -1 -48 16 -13 12
-24 28 -24 34 0 7 187 199 415 427 228 228 415 419 415 424 0 14 -153 164
-167 164 -6 0 -20 -10 -31 -22 -10 -13 -197 -200 -415 -417 l-395 -394 -34 29
-34 30 22 54 c12 30 36 89 54 130 17 41 57 136 87 210 53 129 73 177 128 310
14 33 36 86 49 118 13 31 47 113 75 181 43 102 50 127 39 137 -14 14 -148 72
-185 81 -22 5 -38 -22 -78 -127 -8 -19 -30 -73 -50 -120 -20 -47 -43 -101 -50
-120 -8 -19 -44 -107 -80 -195 -37 -88 -75 -180 -85 -205 -10 -25 -32 -79 -50
-120 -18 -41 -41 -99 -53 -128 -11 -30 -26 -56 -33 -59 -7 -2 -32 4 -57 15
-43 19 -44 21 -51 78 -4 32 -6 310 -6 616 1 307 -1 562 -5 567 -7 12 -1027 15
-1039 4z m799 -1408 c497 -131 848 -557 872 -1060 7 -156 -6 -266 -47 -396
-108 -345 -372 -625 -712 -753 -111 -41 -262 -66 -408 -67 -89 -1 -257 29
-307 54 -16 8 -55 22 -88 32 -137 39 -213 80 -336 182 -158 132 -280 309 -347
508 -120 351 -65 730 149 1040 45 65 176 203 244 257 140 112 355 201 548 228
115 16 321 4 432 -25z m-1396 -1964 c19 -27 20 -29 3 -43 -37 -33 -58 -37
-175 -31 l-117 6 107 43 c58 24 108 46 111 49 15 15 53 2 71 -24z m3127 -216
c152 -16 196 -23 354 -55 165 -34 220 -51 237 -76 14 -23 59 -131 378 -924
101 -250 222 -552 270 -670 120 -294 126 -310 117 -310 -4 0 -23 5 -42 10 -20
5 -49 11 -65 14 -17 2 -37 6 -45 9 -28 11 -173 38 -239 44 -130 12 -438 14
-556 3 -114 -11 -312 -43 -345 -57 -8 -3 -19 -5 -23 -4 -13 2 -212 -54 -334
-95 -150 -51 -311 -121 -490 -214 -137 -71 -154 -77 -162 -61 -5 9 -28 64 -51
122 -23 57 -52 129 -65 159 -13 30 -42 102 -65 160 -23 58 -67 166 -97 240
-30 74 -66 162 -78 195 -13 33 -61 150 -106 260 -45 110 -92 227 -104 260 -13
33 -40 98 -60 145 -20 47 -45 108 -55 135 -10 28 -37 95 -59 149 -23 55 -41
104 -41 109 0 12 32 38 125 100 277 185 621 305 1005 351 156 19 428 19 596 1z
m-3255 -105 c283 -15 526 -59 713 -130 56 -21 148 -52 206 -70 58 -18 159 -58
225 -90 129 -62 124 -57 170 -170 112 -273 158 -387 302 -745 91 -225 187
-464 213 -530 26 -66 73 -183 105 -260 31 -77 67 -166 80 -197 13 -32 20 -58
15 -58 -4 0 -39 14 -76 30 -37 17 -74 32 -83 33 -9 1 -20 5 -26 8 -60 36 -416
114 -535 118 -8 0 -49 4 -90 8 -92 10 -509 10 -605 1 -38 -4 -110 -9 -160 -13
-49 -3 -94 -10 -99 -15 -5 -5 -14 -6 -20 -4 -13 5 -359 -51 -386 -63 -8 -3
-22 -7 -30 -8 -8 -1 -32 -5 -53 -9 -38 -7 -38 -7 -58 41 -11 26 -29 68 -39 93
-11 25 -47 110 -80 190 -34 80 -72 170 -86 201 -13 31 -24 59 -24 63 0 3 -9
25 -19 49 -19 40 -41 93 -152 362 -28 66 -61 145 -74 175 -20 44 -187 445
-300 720 -13 30 -29 71 -38 90 -35 82 -40 75 85 104 146 33 266 53 403 66 214
20 295 22 516 10z m-1171 -395 c29 -71 77 -186 106 -255 29 -69 107 -255 173
-415 66 -159 136 -328 156 -375 185 -438 365 -879 365 -894 0 -10 -18 -49 -41
-87 -22 -38 -46 -84 -53 -101 l-14 -32 -20 41 c-12 22 -30 62 -40 89 -11 27
-43 105 -72 174 -28 69 -62 150 -75 180 -12 30 -75 181 -140 335 -65 154 -128
305 -140 335 -13 30 -37 89 -55 130 -18 41 -39 93 -47 114 -8 22 -24 60 -35
85 -11 25 -40 93 -63 151 -24 58 -69 166 -100 240 -97 229 -92 202 -48 289 49
98 77 142 84 133 3 -4 29 -65 59 -137z m5464 -1714 c128 -23 278 -61 364 -93
50 -19 53 -22 49 -47 -3 -14 -13 -75 -23 -136 -9 -60 -18 -115 -19 -121 -3 -8
-42 -3 -127 17 -237 55 -398 73 -668 74 -280 0 -424 -15 -660 -70 -250 -58
-563 -171 -792 -286 -43 -22 -80 -39 -83 -39 -3 0 -5 28 -5 63 0 34 -5 80 -10
102 -6 27 -5 44 2 53 20 24 241 150 365 208 356 168 700 267 1043 298 119 11
448 -3 564 -23z m-3161 -181 c276 -18 533 -72 724 -153 79 -33 212 -108 262
-146 l24 -19 -67 -123 c-37 -68 -73 -130 -80 -137 -10 -10 -38 0 -147 56 -74
38 -171 82 -215 99 -221 85 -487 145 -714 161 -74 5 -157 11 -185 13 -64 5
-298 5 -350 0 -22 -2 -96 -8 -165 -12 -139 -10 -287 -27 -310 -36 -8 -4 -24
-8 -35 -9 -11 -1 -39 -5 -62 -8 -24 -3 -43 -3 -43 -1 0 16 83 164 100 180 22
20 210 58 505 101 284 41 500 51 758 34z"/>
<path d="M7116 6268 c3 -5 -5 -7 -18 -6 -34 2 -166 -48 -203 -76 -50 -38 -157
-148 -150 -154 14 -14 38 -9 42 9 3 10 10 19 16 19 6 0 8 3 4 6 -3 4 8 18 25
33 17 14 39 34 49 44 11 9 24 17 29 17 6 0 10 4 10 8 0 4 16 14 35 21 19 7 35
16 35 21 0 4 6 8 13 7 31 -1 48 4 42 13 -3 5 7 9 22 9 15 -1 60 0 98 1 39 1
73 1 78 0 4 -1 15 -3 25 -4 11 0 25 -6 33 -12 8 -6 30 -19 49 -29 18 -10 40
-24 48 -31 7 -8 21 -18 31 -23 9 -5 34 -36 56 -68 22 -32 44 -61 50 -65 5 -4
10 -11 11 -15 2 -17 23 -61 33 -67 6 -4 8 -13 4 -21 -3 -8 0 -15 6 -15 6 0 11
-11 11 -25 0 -14 5 -25 11 -25 5 0 8 -4 4 -9 -3 -5 0 -13 6 -16 5 -4 8 -13 5
-21 -3 -8 -1 -14 4 -14 5 0 7 -6 4 -13 -2 -7 4 -21 15 -31 20 -18 20 -18 10
15 -5 19 -16 58 -24 88 -8 30 -19 57 -23 60 -7 5 -22 34 -27 51 -4 19 -42 91
-62 118 -21 28 -23 35 -11 50 12 15 11 16 -4 3 -16 -12 -21 -10 -45 18 -15 17
-31 31 -36 31 -4 0 -18 11 -30 25 -33 36 -121 68 -209 74 -42 3 -74 3 -72 -1z"/>
<path d="M4595 4623 c66 -5 83 -23 25 -24 -44 -2 -44 -2 -10 -8 32 -6 29 -7
-33 -19 -37 -6 -85 -18 -106 -26 -27 -9 -43 -10 -50 -3 -7 7 -14 7 -23 -1 -8
-6 -45 -16 -83 -22 -38 -6 -71 -13 -73 -15 -2 -2 -16 1 -30 6 -22 8 -23 8 -12
-6 11 -13 8 -15 -16 -15 -23 0 -26 2 -14 11 13 9 13 10 0 6 -8 -2 -14 -10 -12
-16 1 -6 -2 -11 -7 -11 -12 0 -32 25 -26 34 3 3 0 2 -6 -3 -6 -5 -9 -19 -7
-32 2 -18 9 -24 28 -24 15 0 24 5 23 13 -2 6 6 12 17 12 11 0 20 -5 20 -11 0
-5 5 -7 10 -4 12 8 68 20 113 24 5 1 5 6 1 12 -5 8 -2 9 11 2 20 -11 81 -1 98
16 15 15 30 14 21 -1 -6 -10 -4 -10 8 0 9 7 20 12 24 11 5 -1 20 -1 34 0 20 1
22 3 10 11 -13 8 -13 10 2 10 9 0 18 -5 20 -11 2 -5 11 -7 22 -3 13 5 14 9 5
15 -7 4 6 10 34 14 26 4 47 12 47 19 0 6 5 4 10 -4 8 -13 10 -13 10 1 0 30
-34 49 -86 47 l-49 -2 50 -3z"/>
<path d="M2046 9024 c-3 -9 -13 -14 -21 -11 -9 4 -12 1 -8 -9 3 -7 0 -14 -5
-14 -6 0 -13 -9 -17 -19 -4 -14 -12 -18 -23 -14 -9 3 -14 3 -10 -2 7 -7 -14
-35 -26 -35 -7 0 -74 -69 -106 -109 -14 -17 -31 -29 -38 -26 -8 3 -10 0 -6 -7
4 -6 -1 -17 -11 -25 -11 -7 -15 -13 -11 -13 4 0 0 -7 -8 -16 -9 -8 -21 -12
-27 -8 -7 4 -9 3 -6 -3 8 -13 -27 -46 -38 -36 -4 5 -5 2 -1 -4 8 -14 -17 -57
-26 -47 -3 3 -12 -9 -19 -25 -14 -31 -23 -38 -32 -23 -2 4 -3 2 -1 -4 1 -6 -8
-23 -19 -37 -12 -14 -33 -40 -47 -57 -14 -18 -31 -38 -38 -46 -7 -8 -11 -14
-8 -14 3 0 -8 -14 -24 -30 -17 -17 -30 -35 -30 -39 0 -5 -16 -25 -34 -45 -22
-22 -34 -43 -31 -55 2 -14 -1 -18 -11 -14 -8 3 -14 -1 -14 -11 0 -9 -4 -16 -9
-16 -5 0 -12 -8 -16 -19 -3 -10 -17 -31 -30 -47 -14 -16 -25 -35 -25 -42 0 -7
-4 -11 -8 -8 -12 7 -44 -63 -36 -76 4 -6 2 -8 -3 -5 -6 4 -16 -6 -23 -22 -6
-16 -17 -32 -23 -34 -16 -7 -52 -76 -44 -84 10 -9 42 28 42 47 -1 20 17 39 29
32 5 -3 7 2 3 11 -3 10 -2 17 4 17 6 0 7 5 4 10 -3 6 1 10 9 10 9 0 16 6 16
13 0 8 9 22 20 32 11 10 17 21 15 25 -3 4 7 20 20 34 14 15 25 35 25 46 0 10
9 22 20 25 11 3 20 13 20 21 0 8 7 17 15 20 8 4 15 18 15 33 0 20 2 23 10 11
8 -13 10 -12 10 3 0 9 4 17 10 17 5 0 6 7 3 17 -4 11 -3 14 6 9 6 -4 11 -4 10
1 -1 4 -1 15 0 23 1 13 2 13 11 0 5 -8 10 -10 10 -4 0 6 9 21 20 34 11 12 17
27 14 31 -3 5 2 9 10 9 9 0 16 4 16 8 0 5 9 18 20 30 12 12 18 22 15 22 -4 0
7 15 24 33 47 48 54 57 110 125 28 34 48 62 44 62 -3 0 6 13 22 30 15 16 33
26 38 23 6 -4 8 1 4 11 -6 14 -3 17 10 12 10 -4 14 -4 11 0 -4 3 45 57 108
119 62 62 114 117 114 123 0 6 10 12 22 14 19 3 19 5 6 16 -13 10 -17 10 -22
-4z"/>
<path d="M9936 7292 c-6 -10 22 -100 47 -148 8 -16 18 -46 22 -67 4 -20 10
-37 14 -37 4 0 8 -6 8 -12 0 -14 35 -125 64 -206 10 -29 19 -64 19 -77 0 -14
4 -25 9 -25 6 0 10 -8 9 -17 0 -10 9 -52 20 -93 26 -97 59 -249 71 -325 6 -33
13 -71 16 -85 3 -14 8 -43 10 -65 2 -22 7 -53 11 -70 12 -58 25 -199 24 -262
0 -27 4 -43 11 -43 8 0 8 -4 1 -12 -7 -9 -5 -32 4 -73 14 -59 14 -59 8 60 -3
66 -12 171 -19 235 -8 63 -15 136 -15 163 0 26 -4 47 -9 47 -5 0 -12 30 -16
67 -4 37 -11 77 -16 90 -4 12 -11 44 -14 70 -3 26 -12 69 -20 96 -8 26 -11 55
-8 64 5 12 3 14 -7 8 -10 -6 -12 -4 -6 10 4 11 1 32 -8 50 -8 16 -25 68 -37
115 -12 47 -30 111 -40 143 -11 31 -19 64 -19 72 0 8 -5 15 -11 15 -6 0 -9 7
-5 15 3 8 2 15 -3 15 -5 0 -11 19 -15 42 -4 23 -15 56 -26 73 -10 16 -19 33
-19 38 -3 42 -46 143 -55 129z"/>
<path d="M10495 5400 c0 -201 1 -346 3 -322 2 28 8 42 18 42 8 0 14 10 14 26
0 14 -3 23 -7 21 -5 -3 -9 10 -10 29 -2 19 0 34 5 34 11 0 12 262 1 282 -6 12
-6 18 1 18 5 0 10 11 10 25 0 14 -4 25 -10 25 -5 0 -8 13 -7 29 1 16 5 27 10
24 4 -2 7 7 7 21 0 16 -6 26 -14 26 -10 0 -16 14 -18 43 -2 23 -3 -122 -3
-323z"/>
<path d="M276 5683 c-6 -69 -5 -50 -7 -253 -1 -91 2 -232 7 -315 4 -82 7 -168
6 -189 -1 -22 2 -42 7 -45 5 -4 11 -40 15 -81 3 -40 10 -78 14 -82 8 -8 5 24
-20 272 -8 76 -13 247 -12 438 1 171 0 312 -2 312 -1 0 -5 -26 -8 -57z"/>
<path d="M7468 2648 c-1 -156 -3 -310 -4 -343 0 -33 3 -66 9 -72 7 -10 49 -12
161 -11 l151 2 -155 6 -155 6 163 2 c121 1 161 -1 156 -10 -4 -7 -3 -8 5 -4 6
4 9 12 6 17 -4 5 -1 9 5 9 6 0 8 5 4 11 -4 8 -9 8 -17 0 -7 -7 -67 -11 -164
-11 l-153 0 3 340 c1 187 -1 340 -5 340 -5 0 -9 -127 -10 -282z"/>
<path d="M1134 2563 c-8 -12 -5 -22 13 -41 12 -13 20 -29 16 -35 -3 -6 -1 -7
5 -3 7 4 12 1 12 -8 0 -9 5 -16 11 -16 5 0 8 -4 4 -9 -3 -6 3 -14 12 -20 10
-6 15 -11 10 -11 -4 0 5 -14 20 -31 16 -17 27 -36 25 -41 -1 -5 2 -7 8 -3 5 3
10 -1 10 -10 0 -8 7 -18 15 -21 8 -4 12 -10 9 -15 -3 -5 0 -9 6 -9 6 0 15 -11
20 -25 5 -14 17 -25 25 -25 9 0 14 -4 11 -8 -6 -10 22 -49 77 -106 20 -21 37
-42 37 -45 0 -18 312 -341 323 -334 6 3 7 1 4 -4 -4 -6 10 -26 32 -44 69 -62
76 -67 89 -81 7 -7 35 -33 63 -58 28 -25 64 -58 80 -74 16 -15 29 -25 29 -22
0 3 17 -10 37 -30 20 -20 48 -43 62 -52 28 -17 42 -29 79 -62 12 -11 26 -20
31 -20 5 0 11 -5 13 -12 3 -9 6 -9 12 0 7 12 -22 44 -83 90 -17 13 -28 28 -25
34 4 7 2 8 -4 4 -13 -8 -85 37 -75 47 3 4 -2 7 -11 7 -14 0 -17 5 -13 21 4 16
3 18 -8 9 -11 -9 -21 -4 -45 21 -17 19 -28 39 -25 47 4 12 2 12 -8 3 -11 -9
-22 -4 -51 24 -21 19 -35 39 -31 45 4 6 -1 7 -11 3 -13 -5 -16 -3 -11 10 4 11
2 14 -7 11 -7 -3 -37 20 -67 50 -30 31 -59 56 -66 56 -8 0 -10 7 -6 18 3 9 3
14 -1 11 -7 -7 -85 68 -125 121 -15 20 -31 30 -41 27 -13 -3 -16 0 -13 13 3
10 -6 25 -21 38 -14 11 -26 23 -26 26 0 8 -17 28 -84 98 -29 32 -51 60 -48 63
3 3 -3 11 -13 19 -12 8 -15 18 -10 27 5 8 5 11 0 7 -4 -4 -17 -2 -29 4 -11 7
-24 11 -27 10 -4 -1 -5 7 -2 17 3 12 -6 27 -26 44 -29 24 -43 46 -21 32 6 -3
10 -1 10 4 0 6 -7 11 -15 11 -8 0 -15 3 -15 8 0 4 -10 19 -23 34 -12 14 -29
36 -37 48 -8 12 -21 28 -27 36 -7 7 -13 19 -13 28 0 8 -5 18 -11 21 -6 4 -14
16 -17 26 -7 17 -8 17 -18 2z"/>
<path d="M8972 1765 c-46 -47 -90 -85 -97 -85 -8 0 -12 -6 -9 -13 3 -8 -6 -19
-22 -25 -23 -11 -24 -15 -13 -29 12 -14 11 -15 -9 -9 -16 5 -24 3 -28 -9 -4
-9 -13 -14 -21 -11 -8 3 -12 2 -9 -3 7 -11 -74 -86 -103 -96 -11 -3 -21 -12
-21 -19 0 -7 -11 -18 -25 -24 -14 -6 -25 -17 -25 -23 0 -6 -9 -9 -20 -6 -10 3
-19 2 -18 -2 3 -25 -4 -51 -12 -46 -6 4 -8 11 -5 16 12 18 -3 8 -42 -28 -22
-21 -52 -46 -66 -57 -15 -10 -25 -22 -23 -25 3 -4 -4 -8 -15 -8 -11 -1 -35
-15 -53 -30 -17 -16 -46 -35 -64 -42 -17 -7 -34 -22 -37 -32 -5 -15 -12 -18
-27 -13 -14 4 -18 2 -14 -5 4 -6 1 -11 -7 -11 -8 0 -20 -7 -28 -16 -7 -8 -20
-13 -30 -11 -12 3 -16 0 -12 -9 3 -8 0 -14 -5 -14 -6 0 -17 -6 -24 -13 -7 -7
-42 -28 -78 -46 -36 -18 -67 -37 -70 -41 -3 -4 -21 -15 -40 -25 -19 -9 -43
-24 -52 -33 -10 -8 -18 -12 -18 -9 0 4 -18 -3 -40 -14 -22 -12 -40 -25 -40
-30 0 -5 -7 -9 -15 -9 -14 0 -85 -30 -95 -40 -11 -11 -120 -60 -134 -60 -8 0
-21 -6 -28 -13 -7 -7 -21 -16 -30 -20 -10 -3 -17 -14 -17 -24 1 -17 2 -17 6 0
2 9 9 17 14 17 6 0 7 -4 4 -10 -10 -17 4 -11 24 9 11 11 17 22 14 25 -3 3 3 5
13 6 44 1 62 5 58 11 -3 6 20 18 46 24 3 1 22 9 44 18 21 9 42 17 46 17 4 0
17 9 30 20 12 11 26 17 31 14 12 -7 51 15 44 26 -3 4 5 6 17 2 20 -5 21 -4 10
11 -12 14 -11 16 7 12 11 -2 23 1 26 6 4 5 10 7 14 5 4 -3 13 -1 21 5 13 7 13
9 1 9 -11 0 -9 4 5 15 26 20 39 19 23 -2 -13 -17 -13 -17 7 0 11 9 25 17 31
17 6 0 13 7 17 15 3 8 9 14 13 13 14 -3 58 19 72 36 7 9 17 13 22 10 5 -3 12
2 15 10 3 9 10 14 14 11 5 -3 12 0 17 7 4 7 25 22 46 33 20 11 37 22 37 25 0
3 16 14 35 24 19 11 35 23 35 28 0 5 4 6 10 3 5 -3 7 0 4 8 -4 11 6 19 33 27
21 7 42 19 46 27 5 7 12 11 18 8 5 -4 12 1 15 9 3 9 12 16 19 16 7 0 30 18 51
40 22 22 44 40 51 40 13 0 54 32 92 73 14 15 30 27 35 27 5 0 22 12 37 28 16
15 42 38 58 52 16 14 30 30 30 36 1 6 9 18 18 25 15 12 16 12 9 -6 -5 -14 3
-10 28 14 19 19 35 37 34 40 -2 20 4 30 15 26 6 -3 43 27 82 65 38 39 73 70
77 70 5 0 8 7 8 15 0 7 8 19 18 24 16 10 15 10 -3 10 -12 1 -54 -34 -103 -84z"/>
<path d="M2340 1281 c0 -5 7 -14 15 -21 8 -7 15 -9 15 -4 0 5 7 -2 16 -14 8
-12 22 -22 30 -22 8 0 14 -4 14 -10 0 -5 7 -6 17 -3 12 5 14 3 8 -7 -6 -10 -4
-12 8 -7 10 3 17 2 17 -4 0 -14 26 -39 39 -39 6 0 11 -4 11 -10 0 -5 7 -10 15
-10 8 0 15 -4 15 -8 0 -5 16 -14 35 -22 19 -7 36 -19 39 -27 3 -7 12 -10 22
-6 12 4 15 3 10 -5 -4 -7 0 -15 11 -19 10 -3 26 -13 36 -21 9 -8 17 -12 17 -8
0 3 23 -10 51 -30 28 -19 57 -33 65 -30 8 3 14 -1 14 -9 0 -17 36 -39 50 -30
6 3 10 1 10 -4 0 -6 3 -10 8 -10 20 3 33 -2 27 -11 -8 -13 54 -40 74 -32 9 3
12 1 7 -6 -4 -7 -3 -12 2 -12 6 0 12 7 16 15 3 9 0 15 -9 15 -9 0 -23 9 -32
20 -17 20 -39 28 -28 11 3 -5 1 -12 -4 -15 -5 -4 -12 2 -16 13 -3 10 -20 25
-38 32 -18 7 -40 19 -49 27 -10 8 -25 12 -34 8 -12 -5 -15 -2 -10 11 4 10 4
14 0 11 -3 -4 -15 2 -26 12 -12 10 -33 22 -47 25 -15 3 -39 19 -55 36 -16 16
-33 28 -39 26 -6 -2 -19 4 -28 12 -36 32 -47 40 -52 34 -4 -3 -14 2 -23 12
-10 9 -33 27 -53 40 -20 12 -42 30 -50 39 -7 9 -20 16 -28 16 -8 0 -24 11 -35
25 -19 24 -58 35 -58 16z"/>
<path d="M3066 835 c4 -8 10 -12 15 -9 5 3 9 1 9 -4 0 -14 118 -74 130 -67 6
3 10 1 10 -4 0 -6 8 -11 19 -11 10 0 30 -9 44 -20 29 -23 42 -26 31 -7 -5 8
-2 8 9 -2 9 -7 17 -11 17 -8 0 3 11 -5 25 -19 14 -14 30 -22 36 -19 6 4 19 -1
29 -10 10 -9 24 -14 29 -10 6 3 11 1 11 -5 0 -6 8 -9 18 -6 12 4 25 -1 36 -13
10 -11 24 -17 32 -14 8 3 14 0 14 -7 0 -7 8 -9 21 -5 15 5 19 4 15 -4 -4 -7 0
-11 11 -11 11 0 24 -5 30 -11 9 -9 20 -8 43 3 l31 15 -33 6 c-18 3 -46 11 -63
18 -16 7 -41 14 -54 16 -35 6 -106 39 -95 45 5 3 3 3 -3 2 -7 -2 -29 4 -49 12
-20 8 -42 13 -48 11 -7 -3 -18 4 -24 14 -7 10 -20 19 -30 19 -15 0 -15 2 -2
11 13 9 12 10 -2 5 -17 -5 -148 48 -158 64 -3 4 -17 6 -33 5 -15 -2 -25 1 -21
6 3 5 -7 14 -21 19 -34 13 -35 13 -29 -5z"/>
<path d="M4840 312 c0 -16 18 -24 25 -12 9 14 58 13 73 -2 7 -7 12 -8 12 -2 0
5 38 6 97 3 54 -4 118 -8 143 -8 32 -1 41 -4 30 -11 -20 -12 269 -11 339 2 37
7 56 7 64 -1 6 -6 22 -11 36 -11 18 0 22 3 13 9 -22 13 10 21 86 21 47 0 63
-3 52 -10 -9 -6 -10 -10 -3 -10 6 0 18 6 25 14 8 8 23 16 34 19 10 2 -49 4
-132 3 -84 0 -147 -5 -140 -9 12 -9 -492 -2 -656 9 -67 4 -98 3 -98 -4z"/>
</g>
</svg>
